HIERARCHY
ROOT Hips
{
	OFFSET 0.00 86.18 0.00
	CHANNELS 6 Xposition Yposition Zposition Yrotation Xrotation Zrotation
	JOINT RightUpLeg
	{
		OFFSET -9.25 0.00 0.00
		CHANNELS 6 Xposition Yposition Zposition Yrotation Xrotation Zrotation
		JOINT RightLeg
		{
			OFFSET 0.00 -42.00 0.00
			CHANNELS 6 Xposition Yposition Zposition Yrotation Xrotation Zrotation
			JOINT RightFoot
			{
				OFFSET 0.00 -42.00 0.00
				CHANNELS 6 Xposition Yposition Zposition Yrotation Xrotation Zrotation
				End Site
				{
					OFFSET 0 -1.14 11.36
				}
			}
		}
	}
	JOINT LeftUpLeg
	{
		OFFSET 9.25 0.00 0.00
		CHANNELS 6 Xposition Yposition Zposition Yrotation Xrotation Zrotation
		JOINT LeftLeg
		{
			OFFSET 0.00 -42.00 0.00
			CHANNELS 6 Xposition Yposition Zposition Yrotation Xrotation Zrotation
			JOINT LeftFoot
			{
				OFFSET 0.00 -42.00 0.00
				CHANNELS 6 Xposition Yposition Zposition Yrotation Xrotation Zrotation
				End Site
				{
					OFFSET 0 -1.14 11.36
				}
			}
		}
	}
	JOINT Spine
	{
		OFFSET 0.00 10.46 0.00
		CHANNELS 6 Xposition Yposition Zposition Yrotation Xrotation Zrotation
		JOINT Spine1
		{
			OFFSET 0.00 9.75 0.00
			CHANNELS 6 Xposition Yposition Zposition Yrotation Xrotation Zrotation
			JOINT Spine2
			{
				OFFSET 0.00 10.15 0.00
				CHANNELS 6 Xposition Yposition Zposition Yrotation Xrotation Zrotation
				JOINT Spine3
				{
					OFFSET 0.00 9.75 0.00
					CHANNELS 6 Xposition Yposition Zposition Yrotation Xrotation Zrotation
			 		JOINT Neck
					{
						OFFSET 0.00 10.42 0.00
						CHANNELS 6 Xposition Yposition Zposition Yrotation Xrotation Zrotation
						JOINT Head
						{
							OFFSET 0.00 9.50 0.00
							CHANNELS 6 Xposition Yposition Zposition Yrotation Xrotation Zrotation
							End Site
							{
								OFFSET 0 16.00 0
							}
						}    
					} 
					JOINT RightShoulder
	 					{
						OFFSET -3.20 6.94 0.00
						CHANNELS 6 Xposition Yposition Zposition Yrotation Xrotation Zrotation
						JOINT RightArm
						{
							OFFSET -16.00 0.00 0.00
							CHANNELS 6 Xposition Yposition Zposition Yrotation Xrotation Zrotation
							JOINT RightForeArm
							{
								OFFSET -26.50 0.00 0.00
								CHANNELS 6 Xposition Yposition Zposition Yrotation Xrotation Zrotation
								JOINT RightHand
								{
									OFFSET -26.00 0.00 0.00
									CHANNELS 6 Xposition Yposition Zposition Yrotation Xrotation Zrotation
									End Site
									{
										OFFSET -17.50 0 0
									}
								}
							}
						}	
					}
					JOINT LeftShoulder
					{
						OFFSET 3.20 6.94 0.00
						CHANNELS 6 Xposition Yposition Zposition Yrotation Xrotation Zrotation
						JOINT LeftArm
						{
							OFFSET 16.00 0.00 0.00
							CHANNELS 6 Xposition Yposition Zposition Yrotation Xrotation Zrotation
							JOINT LeftForeArm
							{
								OFFSET 26.50 0.00 0.00
								CHANNELS 6 Xposition Yposition Zposition Yrotation Xrotation Zrotation
								JOINT LeftHand
								{
									OFFSET 26.00 0.00 0.00
									CHANNELS 6 Xposition Yposition Zposition Yrotation Xrotation Zrotation
									End Site
									{
										OFFSET 17.50 0 0
									}
								}
							}
						}
					}     			
				}
			}
		} 
	} 
}
MOTION
Frames: 11
Frame Time: 0.010
68.04 92.99 -18.60 -142.10 2.40 -0.51 -9.27 0.00 0.08 -29.62 -2.43 -3.86 -0.02 -42.00 -0.01 13.52 0.23 1.15 -0.23 -42.32 1.01 1.75 0.35 3.52 9.23 -0.01 -0.05 18.54 -3.92 -0.03 -0.03 -42.00 0.00 -10.20 4.25 3.03 0.19 -41.71 -0.75 -1.70 -0.91 1.09 -0.01 10.46 -0.01 -1.75 -1.40 0.57 -0.01 9.74 0.02 -0.44 -0.35 0.14 0.01 10.15 0.03 -0.73 -0.57 0.23 0.01 9.75 0.03 -0.02 -0.74 -0.11 0.04 10.42 -0.09 -0.02 -0.74 -0.11 0.09 9.52 -0.18 0.05 -13.47 -1.97 -3.19 6.96 0.04 0.36 3.14 2.48 -16.00 0.02 0.04 1.79 -2.45 80.63 -26.50 0.04 0.05 -1.61 5.07 -0.20 -26.00 0.04 0.05 7.69 2.48 -8.55 3.20 6.91 -0.05 1.48 0.48 -3.29 16.06 -0.01 -0.03 1.79 11.39 -80.92 26.49 0.09 0.08 -9.94 -1.03 -2.49 25.96 0.14 0.15 -6.30 12.52 11.05 
68.04 92.99 -18.60 -142.10 2.40 -0.51 -9.28 0.00 0.08 -29.58 -2.42 -3.83 -0.03 -42.00 -0.01 13.49 0.24 1.13 -0.23 -42.32 1.01 1.76 0.34 3.52 9.23 -0.01 -0.04 18.55 -3.90 -0.02 -0.02 -42.00 0.01 -10.22 4.22 3.00 0.20 -41.72 -0.76 -1.71 -0.93 1.11 -0.01 10.46 -0.01 -1.73 -1.41 0.57 -0.00 9.74 0.02 -0.43 -0.35 0.14 0.02 10.15 0.03 -0.73 -0.58 0.23 0.02 9.75 0.03 -0.03 -0.73 -0.11 0.04 10.42 -0.09 -0.03 -0.73 -0.11 0.09 9.52 -0.19 -0.05 -13.32 -1.93 -3.19 6.96 0.04 0.30 3.11 2.48 -16.00 0.02 0.05 1.77 -2.43 80.67 -26.50 0.05 0.05 -1.63 5.05 -0.19 -26.00 0.05 0.06 7.70 2.45 -8.58 3.20 6.91 -0.05 1.47 0.50 -3.29 16.07 -0.01 -0.03 1.81 11.39 -80.96 26.49 0.10 0.09 -9.88 -1.03 -2.49 25.96 0.15 0.17 -6.30 12.46 11.04 
68.04 92.99 -18.61 -142.10 2.40 -0.51 -9.29 0.00 0.07 -29.53 -2.42 -3.79 -0.04 -42.00 -0.01 13.46 0.26 1.09 -0.24 -42.32 1.01 1.73 0.33 3.52 9.23 -0.00 -0.04 18.51 -3.88 -0.03 -0.02 -42.00 0.02 -10.17 4.21 3.01 0.21 -41.72 -0.76 -1.72 -0.95 1.13 -0.01 10.46 -0.01 -1.73 -1.43 0.55 0.00 9.74 0.02 -0.43 -0.35 0.13 0.02 10.15 0.03 -0.72 -0.59 0.23 0.02 9.75 0.03 -0.03 -0.72 -0.10 0.05 10.42 -0.09 -0.03 -0.73 -0.10 0.09 9.52 -0.21 -0.10 -13.15 -1.90 -3.18 6.95 0.05 0.27 3.10 2.47 -16.00 0.01 0.05 1.75 -2.41 80.72 -26.50 0.05 0.05 -1.67 5.02 -0.18 -26.00 0.06 0.07 7.71 2.42 -8.60 3.21 6.93 -0.05 1.51 0.60 -3.39 16.08 0.00 -0.02 1.84 11.30 -80.89 26.48 0.12 0.11 -9.79 -1.07 -2.48 25.95 0.17 0.21 -6.30 12.43 10.98 
68.04 92.99 -18.61 -142.10 2.40 -0.51 -9.29 0.00 0.06 -29.50 -2.43 -3.78 -0.04 -42.00 -0.01 13.43 0.26 1.07 -0.24 -42.32 1.01 1.75 0.35 3.52 9.25 -0.00 -0.04 18.44 -3.85 -0.05 -0.00 -42.00 0.03 -10.09 4.19 3.03 0.21 -41.72 -0.75 -1.73 -0.98 1.14 -0.01 10.46 -0.01 -1.73 -1.45 0.54 0.00 9.74 0.01 -0.43 -0.36 0.13 0.01 10.15 0.03 -0.73 -0.59 0.22 0.02 9.75 0.03 -0.03 -0.71 -0.10 0.05 10.42 -0.10 -0.03 -0.72 -0.10 0.09 9.52 -0.24 -0.14 -12.97 -1.87 -3.18 6.95 0.04 0.32 3.08 2.49 -16.01 0.01 0.04 1.66 -2.39 80.76 -26.50 0.06 0.06 -1.71 5.03 -0.17 -26.00 0.07 0.09 7.72 2.37 -8.62 3.21 6.93 -0.05 1.52 0.68 -3.37 16.09 0.01 -0.02 1.88 11.25 -80.93 26.48 0.14 0.14 -9.72 -1.09 -2.47 25.94 0.21 0.25 -6.29 12.40 10.89 
68.04 92.99 -18.62 -142.10 2.40 -0.51 -9.29 0.00 0.07 -29.53 -2.42 -3.79 -0.04 -42.00 -0.01 13.46 0.26 1.09 -0.24 -42.32 1.01 1.73 0.33 3.52 9.23 -0.00 -0.05 18.51 -3.88 -0.03 -0.01 -42.00 0.02 -10.17 4.21 3.01 0.20 -41.72 -0.76 -1.72 -0.95 1.13 -0.01 10.46 -0.01 -1.73 -1.43 0.55 0.00 9.74 0.01 -0.43 -0.35 0.13 0.02 10.15 0.02 -0.72 -0.59 0.23 0.02 9.75 0.03 -0.03 -0.72 -0.10 0.05 10.42 -0.10 -0.03 -0.73 -0.10 0.09 9.52 -0.22 -0.10 -13.15 -1.90 -3.18 6.95 0.04 0.27 3.10 2.47 -16.00 0.01 0.04 1.75 -2.41 80.72 -26.50 0.05 0.05 -1.67 5.02 -0.18 -26.00 0.06 0.08 7.71 2.42 -8.60 3.21 6.93 -0.06 1.51 0.60 -3.39 16.08 0.01 -0.02 1.84 11.30 -80.89 26.48 0.13 0.12 -9.79 -1.07 -2.48 25.95 0.19 0.23 -6.30 12.43 10.98 
68.04 92.99 -18.62 -142.10 2.40 -0.51 -9.28 0.00 0.07 -29.58 -2.42 -3.83 -0.02 -42.00 -0.01 13.49 0.24 1.13 -0.24 -42.32 1.00 1.76 0.34 3.52 9.23 -0.01 -0.05 18.55 -3.90 -0.02 -0.02 -42.00 0.01 -10.22 4.22 3.00 0.20 -41.72 -0.76 -1.71 -0.93 1.11 -0.01 10.46 -0.01 -1.73 -1.41 0.57 0.01 9.74 0.01 -0.43 -0.35 0.14 0.02 10.15 0.02 -0.72 -0.58 0.23 0.02 9.75 0.02 -0.03 -0.73 -0.11 0.05 10.42 -0.11 -0.03 -0.73 -0.11 0.09 9.52 -0.22 -0.05 -13.32 -1.93 -3.18 6.96 0.02 0.30 3.11 2.48 -16.00 0.01 0.03 1.77 -2.43 80.67 -26.50 0.05 0.05 -1.63 5.05 -0.19 -26.00 0.05 0.08 7.70 2.45 -8.58 3.21 6.91 -0.06 1.47 0.50 -3.29 16.08 -0.01 -0.02 1.81 11.39 -80.96 26.48 0.12 0.11 -9.88 -1.03 -2.49 25.95 0.18 0.20 -6.30 12.46 11.04 
68.03 92.99 -18.62 -142.10 2.40 -0.51 -9.27 0.00 0.07 -29.62 -2.43 -3.86 -0.02 -42.00 -0.01 13.52 0.23 1.15 -0.24 -42.32 1.00 1.75 0.35 3.52 9.23 -0.01 -0.07 18.54 -3.92 -0.03 -0.02 -42.00 0.01 -10.20 4.25 3.03 0.19 -41.71 -0.76 -1.70 -0.92 1.09 -0.01 10.46 -0.01 -1.75 -1.40 0.57 0.01 9.74 0.01 -0.44 -0.35 0.14 0.02 10.15 0.02 -0.73 -0.57 0.23 0.02 9.75 0.02 -0.02 -0.74 -0.11 0.06 10.42 -0.11 -0.02 -0.74 -0.11 0.09 9.52 -0.21 0.05 -13.47 -1.97 -3.18 6.96 0.01 0.36 3.14 2.48 -16.00 0.01 0.03 1.79 -2.45 80.63 -26.50 0.04 0.06 -1.61 5.07 -0.20 -26.00 0.05 0.07 7.69 2.48 -8.55 3.21 6.91 -0.06 1.48 0.48 -3.29 16.07 -0.01 -0.02 1.79 11.39 -80.92 26.49 0.10 0.10 -9.94 -1.03 -2.49 25.95 0.17 0.19 -6.30 12.52 11.05 
68.03 93.00 -18.62 -142.08 2.38 -0.52 -9.26 0.00 0.08 -29.64 -2.39 -3.87 -0.01 -42.00 -0.00 13.54 0.24 1.16 -0.24 -42.33 1.02 1.73 0.32 3.52 9.24 -0.01 -0.06 18.51 -3.90 -0.03 -0.02 -42.00 0.01 -10.13 4.25 3.07 0.18 -41.71 -0.76 -1.74 -0.90 1.05 -0.00 10.46 -0.01 -1.77 -1.38 0.60 0.01 9.74 0.01 -0.44 -0.34 0.15 0.02 10.15 0.01 -0.74 -0.56 0.24 0.03 9.75 0.02 -0.02 -0.75 -0.11 0.06 10.42 -0.11 -0.02 -0.75 -0.11 0.10 9.52 -0.20 0.14 -13.60 -2.03 -3.18 6.96 0.01 0.36 3.16 2.47 -16.00 0.02 0.03 1.87 -2.46 80.58 -26.50 0.03 0.06 -1.59 5.08 -0.20 -26.00 0.04 0.07 7.66 2.49 -8.54 3.22 6.91 -0.05 1.48 0.47 -3.31 16.07 -0.01 -0.02 1.80 11.40 -80.88 26.49 0.09 0.09 -10.00 -1.03 -2.50 25.96 0.16 0.17 -6.29 12.57 11.08 
68.03 93.00 -18.61 -142.08 2.37 -0.52 -9.26 0.00 0.07 -29.71 -2.37 -3.88 -0.00 -42.00 0.00 13.59 0.22 1.17 -0.25 -42.33 1.03 1.76 0.34 3.50 9.24 -0.01 -0.06 18.47 -3.88 -0.02 -0.02 -42.00 0.01 -10.05 4.23 3.08 0.18 -41.71 -0.76 -1.80 -0.87 1.03 -0.00 10.46 -0.01 -1.78 -1.36 0.62 0.01 9.74 0.01 -0.45 -0.34 0.15 0.02 10.15 0.01 -0.75 -0.55 0.26 0.03 9.75 0.01 -0.02 -0.75 -0.11 0.06 10.42 -0.11 -0.02 -0.76 -0.11 0.10 9.53 -0.19 0.21 -13.71 -2.10 -3.18 6.96 0.00 0.38 3.18 2.43 -16.00 0.02 0.03 1.93 -2.48 80.55 -26.50 0.03 0.07 -1.59 5.08 -0.20 -26.00 0.03 0.07 7.63 2.49 -8.54 3.22 6.92 -0.05 1.49 0.48 -3.33 16.06 -0.01 -0.01 1.80 11.41 -80.87 26.49 0.09 0.10 -10.07 -1.06 -2.51 25.96 0.15 0.16 -6.34 12.62 11.13 
68.02 93.00 -18.61 -142.06 2.35 -0.54 -9.26 -0.00 0.08 -29.79 -2.31 -3.89 0.01 -42.00 0.01 13.66 0.20 1.17 -0.25 -42.33 1.05 1.74 0.32 3.51 9.25 -0.00 -0.05 18.44 -3.85 -0.02 -0.02 -42.00 0.01 -9.97 4.21 3.11 0.19 -41.71 -0.75 -1.90 -0.86 0.99 -0.00 10.46 -0.01 -1.79 -1.33 0.65 0.01 9.74 0.01 -0.45 -0.33 0.16 0.02 10.15 0.01 -0.75 -0.55 0.27 0.03 9.75 0.01 -0.02 -0.76 -0.12 0.06 10.42 -0.11 -0.01 -0.76 -0.12 0.10 9.53 -0.18 0.27 -13.81 -2.15 -3.18 6.96 0.01 0.30 3.17 2.40 -16.00 0.02 0.03 2.02 -2.50 80.51 -26.50 0.02 0.06 -1.61 5.09 -0.22 -26.00 0.03 0.07 7.62 2.47 -8.51 3.22 6.92 -0.05 1.49 0.45 -3.34 16.06 -0.01 -0.01 1.81 11.44 -80.86 26.49 0.09 0.09 -10.15 -1.08 -2.52 25.96 0.14 0.14 -6.31 12.60 11.17 
68.02 93.00 -18.61 -142.04 2.34 -0.53 -9.26 0.00 0.09 -29.87 -2.26 -3.92 0.02 -42.00 0.03 13.70 0.15 1.18 -0.26 -42.33 1.07 1.74 0.29 3.51 9.25 -0.00 -0.05 18.43 -3.83 -0.03 -0.01 -42.00 0.01 -9.96 4.19 3.11 0.19 -41.71 -0.75 -1.92 -0.84 0.99 -0.00 10.46 -0.01 -1.82 -1.33 0.66 0.01 9.74 -0.00 -0.45 -0.33 0.16 0.02 10.15 0.01 -0.76 -0.54 0.27 0.03 9.75 0.01 -0.01 -0.76 -0.12 0.06 10.41 -0.11 -0.01 -0.76 -0.12 0.10 9.53 -0.17 0.36 -13.88 -2.21 -3.18 6.96 0.00 0.31 3.20 2.38 -16.00 0.02 0.03 2.07 -2.51 80.48 -26.50 0.02 0.07 -1.61 5.06 -0.24 -26.00 0.02 0.07 7.59 2.47 -8.50 3.22 6.92 -0.04 1.55 0.47 -3.33 16.06 -0.01 0.00 1.78 11.44 -80.84 26.49 0.08 0.09 -10.16 -1.15 -2.56 25.96 0.13 0.14 -6.34 12.60 11.23 
